# xmcd
#
# Track frame offsets: 
#        150
#        17316
#        31167
#        49315
#        67636
#        91182
#        108141
#        125876
#        142617
#        157022
#        170887
#        189774
#
# Disc length: 2834 seconds
#
# Revision: 1
# Processed by: cddbd v1.5.2PL0 Copyright (c) Steve Scherf et al.
# Submitted via: ExactAudioCopy v0.95a5
#
DISCID=8c0b100c
DTITLE=Jason Boland and The Stragglers - Comal County Blue
DYEAR=2008
DGENRE=Country
TTITLE0=Sons And Daughters Of Dixie
TTITLE1=Down Here On Earth
TTITLE2=Comal County Blue
TTITLE3=Something You Don't See Everyday
TTITLE4=Bottle By My Bed
TTITLE5=The Party's Not Over
TTITLE6=If It Were Up To Me
TTITLE7=May Not Be Love
TTITLE8=No Reason For Being Late
TTITLE9=Alright
TTITLE10=God Is Mad At Me
TTITLE11=The Outlaw Band
EXTD=
EXTT0=
EXTT1=
EXTT2=
EXTT3=
EXTT4=
EXTT5=
EXTT6=
EXTT7=
EXTT8=
EXTT9=
EXTT10=
EXTT11=
PLAYORDER=
